<svg xmlns="http://www.w3.org/2000/svg" viewBox="0 0 911.3 683.5"><path d="M456.2.8c-188.2 0-340.6 152.8-340.6 341s152.4 341 340.6 341c188.6 0 341.3-152.8 341.3-341S644.8.8 456.2.8zm236.3 204.6H591.9c-10.9-42.7-26.6-83.6-47-121.4 62.7 21.4 114.9 65.1 147.6 121.4zM456.6 70.3c28.3 40.9 50.5 86.3 65.1 135H391.4c14.7-48.7 36.8-94.1 65.2-135zm-264 339.6c-5.5-21.8-8.9-44.7-8.9-68.2s3.4-46.4 8.9-68.2h115.3c-2.7 22.5-4.8 45-4.8 68.2s2 45.7 4.8 68.2H192.6zm28 68.2h100.6c10.9 42.6 26.6 83.5 47.1 121.4-62.8-21.4-115-64.8-147.7-121.4zm100.6-272.7H220.6c32.7-56.6 84.9-99.9 147.6-121.4-20.4 37.8-36.1 78.7-47 121.4zm135.4 407.8c-28.3-40.9-50.5-86.3-65.1-135h130.3c-14.8 48.7-36.9 94.1-65.2 135zm79.7-203.3H376.8c-3.1-22.5-5.5-45-5.5-68.2s2.4-46 5.5-68.2h159.6c3.1 22.2 5.5 45 5.5 68.2s-2.5 45.7-5.6 68.2zm8.6 189.6c20.5-37.8 36.1-78.8 47.1-121.4h100.6c-32.8 56.3-85 100-147.7 121.4zm60.3-189.6c2.7-22.5 4.8-45 4.8-68.2s-2-45.7-4.8-68.2h115.3c5.5 21.8 8.9 44.7 8.9 68.2s-3.4 46.4-8.9 68.2H605.2z"/></svg>