<svg xmlns="http://www.w3.org/2000/svg" viewBox="0 0 911.3 833.4"><path d="M455.5 687.8c-33.7 0-65.4-.2-89.4-.5-45.2-.6-48.2-1.4-52.8-2.8-17.3-4.9-32.1-17.9-39.6-34.7L268 637l-.4-130.7-.2-91H229c-41.6 0-60.6 0-72.4-1.1-14-1.3-29.6-5.1-39.4-24.1-5.9-11.3-9.5-29.4 7-51.2l.1-.2c6.1-8 113.1-127.7 145.7-164.2 36.5-40.8 70.6-78.9 96.2-107.4 45.7-50.9 46.4-51.4 49.5-53.8l.5-.4c5.8-4.3 13.3-7.8 18-9.5l.5-.2c16.9-5.7 37.2-3.6 53.1 5.4l.1.1C497.1 14 499 15 645 178.5c55.2 61.7 89.6 100.5 111.8 125.8 35.4 40.4 36.6 42.9 39 49.3 8.8 22.8-.5 46-22.8 56.4l-.9.4c-11.5 4.9-17.4 4.9-89.3 4.9H644l-.2 91-.5 130.7-5.7 12.7c-7.4 16.8-22.3 29.8-39.7 34.8-5.2 1.5-12 3.3-142.4 3.3zm122.2-64.5s0 .1 0 0z"/><path d="M303.8 797.4h304" fill="none" stroke="#000" stroke-width="72" stroke-linecap="round" stroke-miterlimit="10"/></svg>