<svg xmlns="http://www.w3.org/2000/svg" viewBox="0 0 911.3 687.5"><path d="M455.6 687.5c-33.7 0-65.4-.2-89.4-.5-45.2-.6-48.2-1.4-52.8-2.8-17.3-4.9-32.1-17.9-39.6-34.7l-5.8-12.8-.3-130.7-.2-91h-38.4c-41.6 0-60.6 0-72.4-1.1-14-1.3-29.6-5.1-39.4-24.1-5.9-11.3-9.5-29.4 7-51.2l.1-.2c6.1-8 113.1-127.7 145.7-164.2 36.5-40.8 70.6-78.9 96.2-107.4C412 15.9 412.6 15.4 415.8 13l.5-.4c5.8-4.3 13.3-7.8 18-9.5l.5-.2c16.9-5.7 37.2-3.6 53.1 5.4l.1.1c9.2 5.3 11.1 6.3 157.1 169.8 55.2 61.7 89.6 100.5 111.8 125.8 35.4 40.4 36.6 42.9 39 49.3 8.8 22.8-.5 46-22.8 56.4l-.9.4c-11.5 4.9-17.4 4.9-89.3 4.9H644l-.2 91-.4 130.7-5.7 12.7c-7.4 16.8-22.3 29.8-39.7 34.8-5.2 1.5-12 3.3-142.4 3.3zM577.8 623s0 .1 0 0zm-244.3-2.1c37.9 1.6 206.6 1.6 244.5 0l.3-115 .3-156.2h131c-27.4-31.3-71-80.1-113.5-127.7C516.3 132.8 468.8 79.9 455 66.2 427.6 96 265.5 277.4 201.4 349.7h131.3L333 506l.5 114.9z"/></svg>